<svg width="148" height="19" viewBox="0 0 148 19" fill="none" xmlns="http://www.w3.org/2000/svg">
<path d="M7.904 0.671999C8.864 0.671999 9.68 0.807999 10.352 1.08C11.024 1.352 11.68 1.736 12.32 2.232C12.496 2.376 12.648 2.448 12.776 2.448C13.096 2.448 13.304 1.968 13.4 1.008H13.952C13.888 2.048 13.856 3.888 13.856 6.528H13.304C13.128 5.488 12.968 4.744 12.824 4.296C12.68 3.832 12.44 3.392 12.104 2.976C11.624 2.352 11.008 1.888 10.256 1.584C9.52 1.264 8.72 1.104 7.856 1.104C6.816 1.104 5.904 1.448 5.12 2.136C4.352 2.824 3.752 3.808 3.32 5.088C2.888 6.352 2.672 7.84 2.672 9.552C2.672 11.296 2.904 12.792 3.368 14.04C3.832 15.288 4.472 16.24 5.288 16.896C6.12 17.536 7.056 17.856 8.096 17.856C8.896 17.856 9.672 17.704 10.424 17.4C11.176 17.096 11.768 16.64 12.2 16.032C12.52 15.584 12.752 15.104 12.896 14.592C13.04 14.08 13.176 13.296 13.304 12.24H13.856C13.856 14.992 13.888 16.912 13.952 18H13.4C13.352 17.488 13.28 17.128 13.184 16.92C13.104 16.696 12.984 16.584 12.824 16.584C12.696 16.584 12.528 16.648 12.32 16.776C11.6 17.288 10.912 17.68 10.256 17.952C9.6 18.208 8.808 18.336 7.88 18.336C6.36 18.336 5.024 17.992 3.872 17.304C2.736 16.616 1.848 15.624 1.208 14.328C0.584 13.016 0.272 11.456 0.272 9.648C0.272 7.888 0.592 6.328 1.232 4.968C1.888 3.608 2.792 2.552 3.944 1.8C5.112 1.048 6.432 0.671999 7.904 0.671999ZM22.6514 3.888C22.0754 3.92 21.6514 3.984 21.3794 4.08C21.1234 4.176 20.9474 4.36 20.8514 4.632C20.7554 4.904 20.7074 5.344 20.7074 5.952V15.456C20.7074 16.064 20.7554 16.504 20.8514 16.776C20.9474 17.048 21.1234 17.232 21.3794 17.328C21.6514 17.408 22.0754 17.448 22.6514 17.448H24.1634C25.2674 17.448 26.1234 17.12 26.7314 16.464C27.3554 15.808 27.7314 14.72 27.8594 13.2H28.4114C28.3634 13.696 28.3394 14.352 28.3394 15.168C28.3394 16 28.3954 16.944 28.5074 18C27.4674 17.952 25.7154 17.928 23.2514 17.928C20.2914 17.928 18.0514 17.952 16.5314 18V17.52C17.1074 17.488 17.5234 17.424 17.7794 17.328C18.0514 17.232 18.2354 17.048 18.3314 16.776C18.4274 16.504 18.4754 16.064 18.4754 15.456V5.952C18.4754 5.344 18.4274 4.904 18.3314 4.632C18.2354 4.36 18.0514 4.176 17.7794 4.08C17.5234 3.984 17.1074 3.92 16.5314 3.888V3.408C17.2034 3.456 18.2274 3.48 19.6034 3.48C20.8834 3.48 21.8994 3.456 22.6514 3.408V3.888ZM42.0973 15.168C42.0973 16 42.1533 16.944 42.2653 18C41.2253 17.952 39.4733 17.928 37.0093 17.928C34.0493 17.928 31.8093 17.952 30.2893 18V17.52C30.8653 17.488 31.2813 17.424 31.5373 17.328C31.8093 17.232 31.9933 17.048 32.0893 16.776C32.1853 16.504 32.2333 16.064 32.2333 15.456V5.952C32.2333 5.344 32.1853 4.904 32.0893 4.632C31.9933 4.36 31.8093 4.176 31.5373 4.08C31.2813 3.984 30.8653 3.92 30.2893 3.888V3.408C31.8093 3.456 34.0493 3.48 37.0093 3.48C39.2493 3.48 40.8413 3.456 41.7853 3.408C41.6733 4.368 41.6172 5.232 41.6172 6C41.6172 6.624 41.6413 7.12 41.6893 7.488H41.1373C41.0253 6.176 40.7453 5.264 40.2973 4.752C39.8653 4.224 39.1533 3.96 38.1613 3.96H36.4093C35.8333 3.96 35.4093 4.008 35.1373 4.104C34.8813 4.184 34.7053 4.36 34.6093 4.632C34.5133 4.904 34.4653 5.344 34.4653 5.952V10.416H36.4573C36.9693 10.416 37.3613 10.288 37.6333 10.032C37.9053 9.76 38.0893 9.472 38.1853 9.168C38.2813 8.848 38.3693 8.448 38.4493 7.968H39.0013C38.9533 8.512 38.9293 9.104 38.9293 9.744V10.656C38.9293 11.28 38.9773 12.176 39.0733 13.344H38.5213C38.4253 12.576 38.2413 11.976 37.9693 11.544C37.6973 11.112 37.1933 10.896 36.4573 10.896H34.4653V15.456C34.4653 16.064 34.5133 16.504 34.6093 16.776C34.7053 17.048 34.8813 17.232 35.1373 17.328C35.4093 17.408 35.8333 17.448 36.4093 17.448H38.1613C38.9613 17.448 39.5933 17.32 40.0573 17.064C40.5213 16.808 40.8733 16.4 41.1133 15.84C41.3533 15.264 41.5213 14.464 41.6172 13.44H42.1693C42.1213 13.872 42.0973 14.448 42.0973 15.168ZM56.8027 3.48C57.4747 3.48 58.0107 3.456 58.4107 3.408V3.888C57.9627 4 57.6027 4.224 57.3307 4.56C57.0587 4.88 56.7467 5.44 56.3947 6.24L51.1387 18.12H50.7547L45.1387 5.424C44.7067 4.432 44.1547 3.92 43.4827 3.888V3.408C44.1387 3.456 44.9947 3.48 46.0507 3.48C47.4267 3.48 48.4507 3.456 49.1227 3.408V3.888C48.5307 3.92 48.0907 4 47.8027 4.128C47.5307 4.256 47.3947 4.472 47.3947 4.776C47.3947 5.032 47.5067 5.408 47.7307 5.904L51.8587 15.216L55.4347 7.248C55.8347 6.384 56.0347 5.704 56.0347 5.208C56.0347 4.76 55.8747 4.44 55.5547 4.248C55.2507 4.04 54.7787 3.92 54.1387 3.888V3.408C54.6187 3.456 55.5067 3.48 56.8027 3.48ZM71.1598 15.168C71.1598 16 71.2158 16.944 71.3278 18C70.2878 17.952 68.5358 17.928 66.0718 17.928C63.1118 17.928 60.8718 17.952 59.3518 18V17.52C59.9278 17.488 60.3438 17.424 60.5998 17.328C60.8718 17.232 61.0558 17.048 61.1518 16.776C61.2478 16.504 61.2958 16.064 61.2958 15.456V5.952C61.2958 5.344 61.2478 4.904 61.1518 4.632C61.0558 4.36 60.8718 4.176 60.5998 4.08C60.3438 3.984 59.9278 3.92 59.3518 3.888V3.408C60.8718 3.456 63.1118 3.48 66.0718 3.48C68.3118 3.48 69.9038 3.456 70.8478 3.408C70.7358 4.368 70.6797 5.232 70.6797 6C70.6797 6.624 70.7038 7.12 70.7518 7.488H70.1998C70.0878 6.176 69.8078 5.264 69.3598 4.752C68.9278 4.224 68.2158 3.96 67.2238 3.96H65.4718C64.8958 3.96 64.4718 4.008 64.1998 4.104C63.9438 4.184 63.7678 4.36 63.6718 4.632C63.5758 4.904 63.5278 5.344 63.5278 5.952V10.416H65.5198C66.0318 10.416 66.4238 10.288 66.6958 10.032C66.9678 9.76 67.1518 9.472 67.2478 9.168C67.3438 8.848 67.4318 8.448 67.5118 7.968H68.0638C68.0158 8.512 67.9918 9.104 67.9918 9.744V10.656C67.9918 11.28 68.0398 12.176 68.1358 13.344H67.5838C67.4878 12.576 67.3038 11.976 67.0318 11.544C66.7598 11.112 66.2558 10.896 65.5198 10.896H63.5278V15.456C63.5278 16.064 63.5758 16.504 63.6718 16.776C63.7678 17.048 63.9438 17.232 64.1998 17.328C64.4718 17.408 64.8958 17.448 65.4718 17.448H67.2238C68.0238 17.448 68.6558 17.32 69.1198 17.064C69.5838 16.808 69.9358 16.4 70.1758 15.84C70.4158 15.264 70.5838 14.464 70.6797 13.44H71.2318C71.1838 13.872 71.1598 14.448 71.1598 15.168ZM87.7852 16.992C87.4812 17.424 87.1292 17.76 86.7292 18C86.3452 18.224 85.8812 18.336 85.3372 18.336C83.9932 18.336 83.1692 17.728 82.8652 16.512L82.1212 13.512C81.8972 12.616 81.5612 12.016 81.1132 11.712C80.6812 11.408 80.0332 11.256 79.1692 11.256H77.8012V15.456C77.8012 16.064 77.8492 16.504 77.9452 16.776C78.0412 17.048 78.2172 17.232 78.4732 17.328C78.7452 17.424 79.1692 17.488 79.7452 17.52V18C79.0092 17.952 77.9932 17.928 76.6972 17.928C75.3212 17.928 74.2972 17.952 73.6252 18V17.52C74.2012 17.488 74.6172 17.424 74.8732 17.328C75.1452 17.232 75.3292 17.048 75.4252 16.776C75.5212 16.504 75.5692 16.064 75.5692 15.456V5.952C75.5692 5.344 75.5212 4.904 75.4252 4.632C75.3292 4.36 75.1452 4.176 74.8732 4.08C74.6172 3.984 74.2012 3.92 73.6252 3.888V3.408C74.2972 3.456 75.2732 3.48 76.5532 3.48L79.0012 3.456C79.2732 3.44 79.5852 3.432 79.9372 3.432C81.7292 3.432 83.0972 3.768 84.0412 4.44C85.0012 5.112 85.4812 5.984 85.4812 7.056C85.4812 7.984 85.1052 8.832 84.3532 9.6C83.6172 10.368 82.4012 10.856 80.7052 11.064C81.0252 11.096 81.2972 11.128 81.5212 11.16C82.3692 11.288 83.0412 11.544 83.5372 11.928C84.0332 12.312 84.3852 12.928 84.5932 13.776L85.1212 15.96C85.2492 16.52 85.3852 16.92 85.5292 17.16C85.6892 17.384 85.8892 17.496 86.1292 17.496C86.5292 17.496 86.9692 17.224 87.4492 16.68L87.7852 16.992ZM79.3372 3.888C78.9052 3.888 78.5772 3.944 78.3532 4.056C78.1452 4.168 78.0012 4.368 77.9212 4.656C77.8412 4.944 77.8012 5.376 77.8012 5.952V10.776H79.4092C80.8172 10.776 81.7772 10.48 82.2892 9.888C82.8172 9.28 83.0812 8.424 83.0812 7.32C83.0812 6.168 82.7852 5.312 82.1932 4.752C81.6172 4.176 80.6652 3.888 79.3372 3.888ZM93.7378 0.743999C94.4418 0.743999 94.9938 0.823999 95.3938 0.983999C95.8098 1.128 96.2338 1.344 96.6658 1.632C97.0178 1.856 97.2898 1.968 97.4818 1.968C97.6258 1.968 97.7378 1.888 97.8178 1.728C97.8978 1.552 97.9618 1.28 98.0098 0.912H98.5618C98.4818 1.84 98.4418 3.472 98.4418 5.808H97.8898C97.7938 4.512 97.4178 3.424 96.7618 2.544C96.1218 1.648 95.1858 1.2 93.9538 1.2C93.0898 1.2 92.3858 1.464 91.8418 1.992C91.2978 2.504 91.0258 3.168 91.0258 3.984C91.0258 4.592 91.1618 5.12 91.4338 5.568C91.7218 6.016 92.0818 6.4 92.5138 6.72C92.9458 7.04 93.5618 7.448 94.3618 7.944L95.0578 8.376C96.0658 9 96.8578 9.552 97.4338 10.032C98.0258 10.496 98.4978 11.032 98.8498 11.64C99.2018 12.248 99.3778 12.96 99.3778 13.776C99.3778 15.232 98.8978 16.36 97.9378 17.16C96.9778 17.944 95.7618 18.336 94.2898 18.336C93.5218 18.336 92.8898 18.256 92.3938 18.096C91.9138 17.936 91.4498 17.72 91.0018 17.448C90.6498 17.224 90.3778 17.112 90.1858 17.112C90.0418 17.112 89.9298 17.2 89.8498 17.376C89.7698 17.536 89.7058 17.8 89.6578 18.168H89.1058C89.1698 17.288 89.2018 15.368 89.2018 12.408H89.7538C89.8658 14.024 90.2658 15.336 90.9538 16.344C91.6418 17.352 92.6978 17.856 94.1218 17.856C94.9858 17.856 95.7218 17.592 96.3298 17.064C96.9378 16.52 97.2418 15.72 97.2418 14.664C97.2418 13.768 96.9378 13.008 96.3298 12.384C95.7378 11.76 94.7938 11.056 93.4978 10.272C92.5538 9.696 91.7858 9.184 91.1938 8.736C90.6178 8.288 90.1458 7.752 89.7778 7.128C89.4098 6.488 89.2258 5.744 89.2258 4.896C89.2258 3.552 89.6578 2.528 90.5218 1.824C91.3858 1.104 92.4578 0.743999 93.7378 0.743999ZM117.235 3.888C116.659 3.92 116.235 3.984 115.963 4.08C115.707 4.176 115.531 4.36 115.435 4.632C115.339 4.904 115.291 5.344 115.291 5.952V15.456C115.291 16.064 115.339 16.504 115.435 16.776C115.531 17.048 115.707 17.232 115.963 17.328C116.235 17.424 116.659 17.488 117.235 17.52V18C116.563 17.952 115.539 17.928 114.163 17.928C112.883 17.928 111.867 17.952 111.115 18V17.52C111.691 17.488 112.107 17.424 112.363 17.328C112.635 17.232 112.819 17.048 112.915 16.776C113.011 16.504 113.059 16.064 113.059 15.456V10.68H105.739V15.456C105.739 16.064 105.787 16.504 105.883 16.776C105.979 17.048 106.155 17.232 106.411 17.328C106.683 17.424 107.107 17.488 107.683 17.52V18C106.947 17.952 105.931 17.928 104.635 17.928C103.259 17.928 102.235 17.952 101.563 18V17.52C102.139 17.488 102.555 17.424 102.811 17.328C103.083 17.232 103.267 17.048 103.363 16.776C103.459 16.504 103.507 16.064 103.507 15.456V5.952C103.507 5.344 103.459 4.904 103.363 4.632C103.267 4.36 103.083 4.176 102.811 4.08C102.555 3.984 102.139 3.92 101.563 3.888V3.408C102.235 3.456 103.259 3.48 104.635 3.48C105.915 3.48 106.931 3.456 107.683 3.408V3.888C107.107 3.92 106.683 3.984 106.411 4.08C106.155 4.176 105.979 4.36 105.883 4.632C105.787 4.904 105.739 5.344 105.739 5.952V10.2H113.059V5.952C113.059 5.344 113.011 4.904 112.915 4.632C112.819 4.36 112.635 4.176 112.363 4.08C112.107 3.984 111.691 3.92 111.115 3.888V3.408C111.851 3.456 112.867 3.48 114.163 3.48C115.539 3.48 116.563 3.456 117.235 3.408V3.888ZM126.703 3.072C128.175 3.072 129.463 3.368 130.567 3.96C131.687 4.536 132.551 5.392 133.159 6.528C133.767 7.648 134.071 8.992 134.071 10.56C134.071 12.096 133.751 13.456 133.111 14.64C132.487 15.808 131.615 16.72 130.495 17.376C129.375 18.016 128.103 18.336 126.679 18.336C125.207 18.336 123.911 18.048 122.791 17.472C121.687 16.88 120.831 16.024 120.223 14.904C119.615 13.768 119.311 12.416 119.311 10.848C119.311 9.312 119.623 7.96 120.247 6.792C120.887 5.608 121.767 4.696 122.887 4.056C124.007 3.4 125.279 3.072 126.703 3.072ZM126.607 3.504C125.631 3.504 124.767 3.816 124.015 4.44C123.279 5.048 122.711 5.904 122.311 7.008C121.911 8.096 121.711 9.344 121.711 10.752C121.711 12.176 121.935 13.432 122.383 14.52C122.831 15.608 123.439 16.448 124.207 17.04C124.975 17.616 125.831 17.904 126.775 17.904C127.751 17.904 128.607 17.6 129.343 16.992C130.095 16.368 130.671 15.512 131.071 14.424C131.471 13.32 131.671 12.064 131.671 10.656C131.671 9.232 131.447 7.976 130.999 6.888C130.551 5.8 129.943 4.968 129.175 4.392C128.407 3.8 127.551 3.504 126.607 3.504ZM140.309 12.096V15.456C140.309 16.064 140.357 16.504 140.453 16.776C140.549 17.048 140.725 17.232 140.981 17.328C141.253 17.424 141.677 17.488 142.253 17.52V18C141.517 17.952 140.501 17.928 139.205 17.928C137.829 17.928 136.805 17.952 136.133 18V17.52C136.709 17.488 137.125 17.424 137.381 17.328C137.653 17.232 137.837 17.048 137.933 16.776C138.029 16.504 138.077 16.064 138.077 15.456V5.952C138.077 5.344 138.029 4.904 137.933 4.632C137.837 4.36 137.653 4.176 137.381 4.08C137.125 3.984 136.709 3.92 136.133 3.888V3.408C136.805 3.456 137.781 3.48 139.061 3.48L141.653 3.456C141.957 3.44 142.301 3.432 142.685 3.432C144.397 3.432 145.709 3.8 146.621 4.536C147.533 5.256 147.989 6.224 147.989 7.44C147.989 8.208 147.797 8.944 147.413 9.648C147.045 10.352 146.405 10.936 145.493 11.4C144.597 11.864 143.405 12.096 141.917 12.096H140.309ZM142.085 3.888C141.589 3.888 141.213 3.944 140.957 4.056C140.717 4.168 140.549 4.368 140.453 4.656C140.357 4.944 140.309 5.376 140.309 5.952V11.616H141.677C143.149 11.616 144.165 11.264 144.725 10.56C145.301 9.856 145.589 8.904 145.589 7.704C145.589 6.408 145.317 5.448 144.773 4.824C144.229 4.2 143.333 3.888 142.085 3.888Z" fill="#121212"/>
</svg>
