<svg width="174" height="30" viewBox="0 0 174 30" fill="none" xmlns="http://www.w3.org/2000/svg">
<path d="M160 17V13C160 11.9391 159.579 10.9217 158.828 10.1716C158.078 9.42143 157.061 9 156 9C154.939 9 153.922 9.42143 153.172 10.1716C152.421 10.9217 152 11.9391 152 13V17H160ZM149 15H163L164 27H148L149 15Z" stroke="#121212" stroke-linecap="round" stroke-linejoin="round"/>
<path d="M112 13C112 14.0609 111.579 15.0783 110.828 15.8284C110.078 16.5786 109.061 17 108 17C106.939 17 105.922 16.5786 105.172 15.8284C104.421 15.0783 104 14.0609 104 13C104 11.9391 104.421 10.9217 105.172 10.1716C105.922 9.42143 106.939 9 108 9C109.061 9 110.078 9.42143 110.828 10.1716C111.579 10.9217 112 11.9391 112 13V13Z" stroke="#121212" stroke-linecap="round" stroke-linejoin="round"/>
<path d="M108 20C106.143 20 104.363 20.7375 103.05 22.0503C101.737 23.363 101 25.1435 101 27H115C115 25.1435 114.263 23.363 112.95 22.0503C111.637 20.7375 109.857 20 108 20V20Z" stroke="#121212" stroke-linecap="round" stroke-linejoin="round"/>
<path d="M21 27L15 21L21 27ZM17 16C17 16.9193 16.8189 17.8295 16.4672 18.6788C16.1154 19.5281 15.5998 20.2997 14.9497 20.9497C14.2997 21.5998 13.5281 22.1154 12.6788 22.4672C11.8295 22.8189 10.9193 23 10 23C9.08075 23 8.1705 22.8189 7.32122 22.4672C6.47194 22.1154 5.70026 21.5998 5.05025 20.9497C4.40024 20.2997 3.88463 19.5281 3.53284 18.6788C3.18106 17.8295 3 16.9193 3 16C3 14.1435 3.7375 12.363 5.05025 11.0503C6.36301 9.7375 8.14348 9 10 9C11.8565 9 13.637 9.7375 14.9497 11.0503C16.2625 12.363 17 14.1435 17 16Z" stroke="#121212" stroke-linecap="round" stroke-linejoin="round"/>
<path d="M51.055 17H53C53.5304 17 54.0391 17.2107 54.4142 17.5858C54.7893 17.9609 55 18.4696 55 19V20C55 20.5304 55.2107 21.0391 55.5858 21.4142C55.9609 21.7893 56.4696 22 57 22C57.5304 22 58.0391 22.2107 58.4142 22.5858C58.7893 22.9609 59 23.4696 59 24V26.945M56 9.935V11.5C56 12.163 56.2634 12.7989 56.7322 13.2678C57.2011 13.7366 57.837 14 58.5 14H59C59.5304 14 60.0391 14.2107 60.4142 14.5858C60.7893 14.9609 61 15.4696 61 16C61 16.5304 61.2107 17.0391 61.5858 17.4142C61.9609 17.7893 62.4696 18 63 18C63.5304 18 64.0391 17.7893 64.4142 17.4142C64.7893 17.0391 65 16.5304 65 16C65 15.4696 65.2107 14.9609 65.5858 14.5858C65.9609 14.2107 66.4696 14 67 14H68.064M63 26.488V24C63 23.4696 63.2107 22.9609 63.5858 22.5858C63.9609 22.2107 64.4696 22 65 22H68.064L63 26.488ZM69 18C69 19.1819 68.7672 20.3522 68.3149 21.4442C67.8626 22.5361 67.1997 23.5282 66.364 24.364C65.5282 25.1997 64.5361 25.8626 63.4442 26.3149C62.3522 26.7672 61.1819 27 60 27C58.8181 27 57.6478 26.7672 56.5558 26.3149C55.4639 25.8626 54.4718 25.1997 53.636 24.364C52.8003 23.5282 52.1374 22.5361 51.6851 21.4442C51.2328 20.3522 51 19.1819 51 18C51 15.6131 51.9482 13.3239 53.636 11.636C55.3239 9.94821 57.6131 9 60 9C62.3869 9 64.6761 9.94821 66.364 11.636C68.0518 13.3239 69 15.6131 69 18Z" stroke="#121212" stroke-linecap="round" stroke-linejoin="round"/>
<circle cx="164" cy="10" r="9" fill="#121212" stroke="white" stroke-width="2"/>
</svg>
