<svg width="12" height="11" viewBox="0 0 12 11" fill="none" xmlns="http://www.w3.org/2000/svg">
<path d="M5.33418 1.04889C5.54418 0.404194 6.45628 0.404194 6.66558 1.04889L7.41458 3.35329C7.46034 3.49364 7.5493 3.61592 7.66873 3.70267C7.78817 3.78941 7.93197 3.83618 8.07958 3.83629H10.503C11.1813 3.83629 11.4627 4.70429 10.9146 5.10329L8.95458 6.52709C8.83491 6.61391 8.74579 6.7364 8.70002 6.87699C8.65424 7.01758 8.65416 7.16905 8.69978 7.30969L9.44878 9.61409C9.65878 10.2588 8.92028 10.7957 8.37078 10.3967L6.41078 8.97289C6.29123 8.8861 6.14728 8.83935 5.99953 8.83935C5.85179 8.83935 5.70784 8.8861 5.58828 8.97289L3.62828 10.3967C3.07948 10.7957 2.34168 10.2588 2.55098 9.61409L3.29998 7.30969C3.34561 7.16905 3.34552 7.01758 3.29975 6.87699C3.25398 6.7364 3.16486 6.61391 3.04518 6.52709L1.08588 5.10399C0.537784 4.70499 0.819884 3.83699 1.49748 3.83699H3.92018C4.06792 3.83703 4.21188 3.79033 4.33145 3.70357C4.45103 3.61681 4.54009 3.49445 4.58588 3.35399L5.33488 1.04959L5.33418 1.04889Z" fill="#E6E6E6"/>
</svg>
